<?xml version="1.0" encoding="UTF-8"?>
<!DOCTYPE svg PUBLIC "-//W3C//DTD SVG 1.1//EN" "http://www.w3.org/Graphics/SVG/1.1/DTD/svg11.dtd">
<svg xmlns="http://www.w3.org/2000/svg" version="1.1" width="490px" height="126px" style="shape-rendering:geometricPrecision; text-rendering:geometricPrecision; image-rendering:optimizeQuality; fill-rule:evenodd; clip-rule:evenodd" xmlns:xlink="http://www.w3.org/1999/xlink">
<g><path style="opacity:0.848" fill="#651fff" d="M 439.5,-0.5 C 443.833,-0.5 448.167,-0.5 452.5,-0.5C 464.202,4.23096 469.202,12.8976 467.5,25.5C 465.167,26.8333 462.833,26.8333 460.5,25.5C 460.619,15.4574 455.786,9.45739 446,7.5C 441.823,8.08898 438.157,9.75564 435,12.5C 433.413,16.7131 431.913,20.8797 430.5,25C 428.215,26.9536 426.048,26.787 424,24.5C 423.075,12.3432 428.242,4.0099 439.5,-0.5 Z"/></g>
<g><path style="opacity:0.977" fill="#651fff" d="M 489.5,90.5 C 489.5,98.8333 489.5,107.167 489.5,115.5C 488.538,119.42 486.538,122.753 483.5,125.5C 458.5,125.5 433.5,125.5 408.5,125.5C 404.759,121.696 402.259,117.03 401,111.5C 399.843,105.649 402.009,101.482 407.5,99C 418.167,93 428.833,87 439.5,81C 443.399,76.3003 443.399,71.6336 439.5,67C 428.917,61.4614 418.751,55.2947 409,48.5C 406.465,42.2091 407.632,36.7091 412.5,32C 434.833,31.3333 457.167,31.3333 479.5,32C 480.787,33.4095 481.954,34.9095 483,36.5C 485.35,54.6306 487.516,72.6306 489.5,90.5 Z"/></g>
<g><path style="opacity:1" fill="#262726" d="M 4.5,46.5 C 13.1667,46.5 21.8333,46.5 30.5,46.5C 30.5,50.5 30.5,54.5 30.5,58.5C 26.5,58.5 22.5,58.5 18.5,58.5C 18.5,60.1667 18.5,61.8333 18.5,63.5C 22.1667,63.5 25.8333,63.5 29.5,63.5C 29.5,67.1667 29.5,70.8333 29.5,74.5C 25.8333,74.5 22.1667,74.5 18.5,74.5C 18.5,79.5 18.5,84.5 18.5,89.5C 13.8333,89.5 9.16667,89.5 4.5,89.5C 4.5,75.1667 4.5,60.8333 4.5,46.5 Z"/></g>
<g><path style="opacity:1" fill="#272727" d="M 82.5,58.5 C 84.2649,67.1106 86.5982,75.444 89.5,83.5C 90.3414,85.3792 90.6747,87.3792 90.5,89.5C 86.1667,89.5 81.8333,89.5 77.5,89.5C 77.5792,88.0695 77.2458,86.7362 76.5,85.5C 72.8927,84.5108 69.226,84.1774 65.5,84.5C 65.7135,86.1439 65.3802,87.6439 64.5,89C 59.5,89.6667 54.5,89.6667 49.5,89C 54.4575,75.2944 59.1242,61.4611 63.5,47.5C 68.8333,46.1667 74.1667,46.1667 79.5,47.5C 80.7081,51.1223 81.7081,54.789 82.5,58.5 Z M 70.5,64.5 C 72.4725,67.0836 73.4725,70.0836 73.5,73.5C 71.8008,73.6602 70.1341,73.4935 68.5,73C 69.713,70.3135 70.3797,67.4802 70.5,64.5 Z"/></g>
<g><path style="opacity:1" fill="#651fff" d="M 113.5,46.5 C 121.903,46.1301 130.236,46.6301 138.5,48C 144.151,51.1321 146.818,55.9655 146.5,62.5C 145.258,73.7276 138.924,78.7276 127.5,77.5C 127.5,81.5 127.5,85.5 127.5,89.5C 122.833,89.5 118.167,89.5 113.5,89.5C 113.5,75.1667 113.5,60.8333 113.5,46.5 Z M 127.5,58.5 C 133.016,58.4734 134.349,60.64 131.5,65C 130.207,65.49 128.873,65.6567 127.5,65.5C 127.5,63.1667 127.5,60.8333 127.5,58.5 Z"/></g>
<g><path style="opacity:1" fill="#651fff" d="M 167.5,46.5 C 172.167,46.5 176.833,46.5 181.5,46.5C 181.5,56.1667 181.5,65.8333 181.5,75.5C 185.833,75.5 190.167,75.5 194.5,75.5C 194.5,80.1667 194.5,84.8333 194.5,89.5C 185.5,89.5 176.5,89.5 167.5,89.5C 167.5,75.1667 167.5,60.8333 167.5,46.5 Z"/></g>
<g><path style="opacity:1" fill="#651fff" d="M 227.5,46.5 C 233.303,45.9132 238.803,46.5798 244,48.5C 248.168,61.839 252.334,75.1724 256.5,88.5C 251.544,89.4941 246.544,89.8275 241.5,89.5C 241.579,88.0695 241.246,86.7362 240.5,85.5C 236.893,84.5108 233.226,84.1774 229.5,84.5C 229.714,86.1439 229.38,87.6439 228.5,89C 223.5,89.6667 218.5,89.6667 213.5,89C 218.663,75.01 223.33,60.8434 227.5,46.5 Z M 234.5,64.5 C 236.472,67.0836 237.472,70.0836 237.5,73.5C 235.801,73.6602 234.134,73.4935 232.5,73C 233.713,70.3135 234.38,67.4802 234.5,64.5 Z"/></g>
<g><path style="opacity:1" fill="#651fff" d="M 277.5,46.5 C 289.171,46.3335 300.838,46.5001 312.5,47C 307.118,56.2631 302.118,65.7631 297.5,75.5C 302.12,76.4933 306.786,76.8266 311.5,76.5C 311.5,80.8333 311.5,85.1667 311.5,89.5C 299.495,89.6665 287.495,89.4999 275.5,89C 280.373,79.421 285.373,69.921 290.5,60.5C 286.217,59.5078 281.884,59.1744 277.5,59.5C 277.5,55.1667 277.5,50.8333 277.5,46.5 Z"/></g>
<g><path style="opacity:1" fill="#651fff" d="M 345.5,46.5 C 351.303,45.9132 356.803,46.5798 362,48.5C 366.168,61.839 370.334,75.1724 374.5,88.5C 369.544,89.4941 364.544,89.8275 359.5,89.5C 359.579,88.0695 359.246,86.7362 358.5,85.5C 354.893,84.5108 351.226,84.1774 347.5,84.5C 347.714,86.1439 347.38,87.6439 346.5,89C 341.5,89.6667 336.5,89.6667 331.5,89C 336.663,75.01 341.33,60.8434 345.5,46.5 Z M 352.5,64.5 C 354.472,67.0836 355.472,70.0836 355.5,73.5C 353.801,73.6602 352.134,73.4935 350.5,73C 351.713,70.3135 352.38,67.4802 352.5,64.5 Z"/></g>
<g><path style="opacity:0.88" fill="#651fff" d="M 404.5,56.5 C 406.199,56.3398 407.866,56.5065 409.5,57C 417.004,61.5865 424.671,65.9199 432.5,70C 435.539,73.805 434.872,76.805 430.5,79C 423.263,82.5676 416.263,86.5676 409.5,91C 407.866,91.4935 406.199,91.6602 404.5,91.5C 405.536,85.3573 407.203,79.3573 409.5,73.5C 407.052,68.0373 405.385,62.3706 404.5,56.5 Z"/></g>
<g><path style="opacity:1" fill="#322727" d="M 82.5,58.5 C 85.434,65.5452 87.7673,72.8786 89.5,80.5C 89.5,81.5 89.5,82.5 89.5,83.5C 86.5982,75.444 84.2649,67.1106 82.5,58.5 Z"/></g>
<g><path style="opacity:0.732" fill="#651fff" d="M 391.5,60.5 C 395.585,59.6588 398.585,60.9922 400.5,64.5C 400.167,65.1667 399.833,65.8333 399.5,66.5C 396.554,67.6548 393.554,67.8214 390.5,67C 388.115,64.5495 388.449,62.3829 391.5,60.5 Z"/></g>
<g><path style="opacity:0.719" fill="#651fff" d="M 393.5,70.5 C 396.518,70.3354 399.518,70.502 402.5,71C 404.245,75.2699 402.745,77.4366 398,77.5C 393.054,77.3868 391.554,75.0535 393.5,70.5 Z"/></g>
<g><path style="opacity:0.812" fill="#651fff" d="M 388.5,80.5 C 391.518,80.3354 394.518,80.502 397.5,81C 398.554,82.3876 398.72,83.8876 398,85.5C 394.927,86.6168 391.76,86.7835 388.5,86C 387.248,84.1722 387.248,82.3388 388.5,80.5 Z"/></g>
<g><path style="opacity:1" fill="#50262c" d="M 89.5,80.5 C 90.7908,82.949 91.7908,85.6156 92.5,88.5C 92.0431,89.2975 91.3764,89.6309 90.5,89.5C 90.6747,87.3792 90.3414,85.3792 89.5,83.5C 89.5,82.5 89.5,81.5 89.5,80.5 Z"/></g>
</svg>
