<svg width="20" height="19" viewBox="0 0 20 19" fill="none" xmlns="http://www.w3.org/2000/svg">
<path d="M18.8267 9.34509H14.8971C14.2284 9.34509 13.6039 9.67929 13.233 10.2357L12.4204 11.4545C12.0495 12.0109 11.425 12.3451 10.7563 12.3451H9.06282C8.30522 12.3451 7.61272 11.9171 7.27393 11.2395L6.87951 10.4507C6.54072 9.77309 5.8482 9.34509 5.09065 9.34509H0.826721" stroke="#651FFF" stroke-width="1.5" stroke-linecap="round" stroke-linejoin="round"/>
<path d="M18.8267 15.3451V9.34509L16.3134 2.64284C16.0206 1.86224 15.2744 1.34509 14.4407 1.34509H5.21272C4.37903 1.34509 3.63279 1.86224 3.34006 2.64284L0.826721 9.34509V15.3451C0.826721 16.4497 1.72215 17.3451 2.82672 17.3451H16.8267C17.9313 17.3451 18.8267 16.4497 18.8267 15.3451Z" stroke="#651FFF" stroke-width="1.5" stroke-linecap="round" stroke-linejoin="round"/>
</svg>
