<svg width="21" height="15" viewBox="0 0 21 15" fill="none" xmlns="http://www.w3.org/2000/svg">
<path d="M5.30701 9.58223C5.30701 9.58223 6.30701 9.58223 7.80701 9.58223C9.30701 9.58223 10.307 9.58223 10.307 9.58223" stroke="#651FFF" stroke-width="1.5" stroke-linecap="round" stroke-linejoin="round"/>
<path d="M19.2128 5.58223H1.40125" stroke="#651FFF" stroke-width="1.5" stroke-linecap="round" stroke-linejoin="round"/>
<path d="M10.307 1.58223C6.30701 1.58223 2.80701 1.91556 2.30701 2.2489C1.93819 2.49477 1.56938 3.82886 1.40123 5.58223C1.34143 6.20593 1.30701 6.88263 1.30701 7.58223C1.30701 10.2489 1.80701 12.5822 2.30701 12.9155C2.80701 13.2489 6.30701 13.5822 10.307 13.5822C14.307 13.5822 17.807 13.2489 18.307 12.9155C18.807 12.5822 19.307 10.2489 19.307 7.58223C19.307 6.88263 19.2726 6.20593 19.2128 5.58223C19.0446 3.82886 18.6758 2.49477 18.307 2.2489C17.807 1.91556 14.307 1.58223 10.307 1.58223Z" stroke="#651FFF" stroke-width="1.5" stroke-linecap="round" stroke-linejoin="round"/>
</svg>
